<svg viewBox="0 0 1000 500" xmlns="http://www.w3.org/2000/svg">
  <rect x="0" y="0" width="1000" height="500" fill="#FAFAFA"/>

  <g id="documents-before">
    <g id="doc-a">
      <rect x="40" y="99" width="140" height="196" fill="none" stroke="#6B6B6B" stroke-width="1.5" stroke-dasharray="5 4" rx="2"/>
      <line x1="56" y1="149" x2="164" y2="149" stroke="#BDBDBD" stroke-width="1" stroke-dasharray="3 3"/>
      <line x1="56" y1="179" x2="164" y2="179" stroke="#BDBDBD" stroke-width="1" stroke-dasharray="3 3"/>
      <line x1="56" y1="209" x2="164" y2="209" stroke="#BDBDBD" stroke-width="1" stroke-dasharray="3 3"/>
    </g>
    <g id="doc-b">
      <rect x="240" y="99" width="140" height="196" fill="none" stroke="#6B6B6B" stroke-width="1.5" stroke-dasharray="5 4" rx="2"/>
      <line x1="256" y1="149" x2="364" y2="149" stroke="#BDBDBD" stroke-width="1" stroke-dasharray="3 3"/>
      <line x1="256" y1="179" x2="364" y2="179" stroke="#BDBDBD" stroke-width="1" stroke-dasharray="3 3"/>
      <line x1="256" y1="209" x2="364" y2="209" stroke="#BDBDBD" stroke-width="1" stroke-dasharray="3 3"/>
    </g>
  </g>

  <g id="documents-after">
    <g id="doc-c">
      <rect x="620" y="99" width="140" height="196" fill="#FFFFFF" stroke="#2D2D2D" stroke-width="1.5" rx="2"/>
      <rect x="620" y="99" width="140" height="30" fill="#2D2D2D" rx="2"/>
      <line x1="628" y1="138" x2="678" y2="138" stroke="#BDBDBD" stroke-width="1"/>
      <line x1="628" y1="146" x2="752" y2="146" stroke="#E0E0E0" stroke-width="0.75"/>
      <rect x="628" y="153" width="42" height="4" fill="#E0E0E0" rx="1"/>
      <rect x="628" y="184" width="14" height="10" fill="#6B6B6B"/>
      <rect x="650" y="178" width="14" height="16" fill="#6B6B6B"/>
      <rect x="672" y="182" width="14" height="12" fill="#6B6B6B"/>
      <rect x="694" y="174" width="14" height="20" fill="#6B6B6B"/>
      <rect x="716" y="180" width="14" height="14" fill="#6B6B6B"/>
      <rect x="738" y="176" width="14" height="18" fill="#6B6B6B"/>
      <line x1="628" y1="200" x2="752" y2="200" stroke="#E0E0E0" stroke-width="0.75"/>
      <rect x="628" y="208" width="28" height="4" fill="#E0E0E0" rx="1"/>
      <line x1="628" y1="219" x2="752" y2="219" stroke="#E0E0E0" stroke-width="0.75"/>
      <line x1="628" y1="275" x2="678" y2="275" stroke="#2D2D2D" stroke-width="1"/>
      <g transform="rotate(-7 697 250)">
        <rect x="662" y="238" width="70" height="24" fill="none" stroke="#10456B" stroke-width="1.5" rx="1.5"/>
        <text x="697" y="250" font-family="Inter, system-ui, -apple-system, sans-serif" font-size="8" font-weight="700" fill="#10456B" text-anchor="middle" dominant-baseline="middle" letter-spacing="0.8">ATTESTED</text>
      </g>
    </g>
    <g id="doc-d">
      <rect x="820" y="99" width="140" height="196" fill="#FFFFFF" stroke="#2D2D2D" stroke-width="1.5" rx="2"/>
      <rect x="820" y="99" width="140" height="30" fill="#2D2D2D" rx="2"/>
      <line x1="828" y1="138" x2="878" y2="138" stroke="#BDBDBD" stroke-width="1"/>
      <line x1="828" y1="146" x2="952" y2="146" stroke="#E0E0E0" stroke-width="0.75"/>
      <rect x="828" y="153" width="42" height="4" fill="#E0E0E0" rx="1"/>
      <rect x="828" y="184" width="14" height="10" fill="#6B6B6B"/>
      <rect x="850" y="178" width="14" height="16" fill="#6B6B6B"/>
      <rect x="872" y="182" width="14" height="12" fill="#6B6B6B"/>
      <rect x="894" y="174" width="14" height="20" fill="#6B6B6B"/>
      <rect x="916" y="180" width="14" height="14" fill="#6B6B6B"/>
      <rect x="938" y="176" width="14" height="18" fill="#6B6B6B"/>
      <line x1="828" y1="200" x2="952" y2="200" stroke="#E0E0E0" stroke-width="0.75"/>
      <rect x="828" y="208" width="28" height="4" fill="#E0E0E0" rx="1"/>
      <line x1="828" y1="219" x2="952" y2="219" stroke="#E0E0E0" stroke-width="0.75"/>
      <line x1="828" y1="275" x2="878" y2="275" stroke="#2D2D2D" stroke-width="1"/>
      <g transform="rotate(-7 897 250)">
        <rect x="862" y="238" width="70" height="24" fill="none" stroke="#10456B" stroke-width="1.5" rx="1.5"/>
        <text x="897" y="250" font-family="Inter, system-ui, -apple-system, sans-serif" font-size="8" font-weight="700" fill="#10456B" text-anchor="middle" dominant-baseline="middle" letter-spacing="0.8">ATTESTED</text>
      </g>
    </g>
  </g>

  <g id="timeline">
    <line x1="40" y1="355" x2="500" y2="355" stroke="#6B6B6B" stroke-width="1.5" stroke-linecap="round" stroke-dasharray="5 5"/>
    <line x1="500" y1="355" x2="960" y2="355" stroke="#10456B" stroke-width="2.5" stroke-linecap="round"/>
    <line x1="110" y1="295" x2="110" y2="355" stroke="#6B6B6B" stroke-width="1" stroke-linecap="round" stroke-dasharray="3 3"/>
    <line x1="310" y1="295" x2="310" y2="355" stroke="#6B6B6B" stroke-width="1" stroke-linecap="round" stroke-dasharray="3 3"/>
    <line x1="690" y1="295" x2="690" y2="355" stroke="#10456B" stroke-width="1.5" stroke-linecap="round"/>
    <line x1="890" y1="295" x2="890" y2="355" stroke="#10456B" stroke-width="1.5" stroke-linecap="round"/>
  </g>

  <g id="adoption-event">
    <line x1="500" y1="341" x2="500" y2="369" stroke="#2D2D2D" stroke-width="2" stroke-linecap="round"/>
    <circle cx="500" cy="355" r="4" fill="#2D2D2D"/>
    <text x="500" y="320" font-family="Inter, system-ui, -apple-system, sans-serif" font-size="14" font-weight="500" fill="#2D2D2D" text-anchor="middle" dominant-baseline="middle" letter-spacing="0.5">SVP adopted</text>
  </g>

  <g id="era-labels">
    <text x="210" y="395" font-family="Inter, system-ui, -apple-system, sans-serif" font-size="12" font-weight="400" fill="#6B6B6B" text-anchor="middle" dominant-baseline="middle" letter-spacing="1">before</text>
    <text x="790" y="395" font-family="Inter, system-ui, -apple-system, sans-serif" font-size="12" font-weight="400" fill="#6B6B6B" text-anchor="middle" dominant-baseline="middle" letter-spacing="1">verifiable track record</text>
  </g>
</svg>