<svg viewBox="0 0 1400 500" xmlns="http://www.w3.org/2000/svg">
  <rect x="0" y="0" width="1400" height="500" fill="#FAFAFA"/>

  <g id="ovl-spec">
    <rect x="150" y="50" width="280" height="400" fill="#FFFFFF" stroke="#E0E0E0" stroke-width="1" rx="3"/>
    <rect x="150" y="50" width="280" height="30" fill="#10456B" rx="3"/>
    <text x="166" y="65" font-family="ui-monospace, SFMono-Regular, Menlo, monospace" font-size="12" font-weight="500" fill="#FFFFFF" text-anchor="start" dominant-baseline="middle">strategy.yaml</text>
    <text x="166" y="110" font-family="ui-monospace, SFMono-Regular, Menlo, monospace" font-size="13" font-weight="500" fill="#2D2D2D" text-anchor="start" dominant-baseline="middle">strategy:</text>
    <text x="180" y="138" font-family="ui-monospace, SFMono-Regular, Menlo, monospace" font-size="13" font-weight="400" fill="#6B6B6B" text-anchor="start" dominant-baseline="middle">name: "SMA Trend"</text>
    <text x="166" y="182" font-family="ui-monospace, SFMono-Regular, Menlo, monospace" font-size="13" font-weight="500" fill="#2D2D2D" text-anchor="start" dominant-baseline="middle">signal:</text>
    <text x="180" y="210" font-family="ui-monospace, SFMono-Regular, Menlo, monospace" font-size="13" font-weight="400" fill="#6B6B6B" text-anchor="start" dominant-baseline="middle">steps:</text>
    <text x="194" y="238" font-family="ui-monospace, SFMono-Regular, Menlo, monospace" font-size="13" font-weight="400" fill="#2D2D2D" text-anchor="start" dominant-baseline="middle">- rolling_mean</text>
    <text x="194" y="266" font-family="ui-monospace, SFMono-Regular, Menlo, monospace" font-size="13" font-weight="400" fill="#2D2D2D" text-anchor="start" dominant-baseline="middle">- compare</text>
    <text x="166" y="310" font-family="ui-monospace, SFMono-Regular, Menlo, monospace" font-size="13" font-weight="500" fill="#2D2D2D" text-anchor="start" dominant-baseline="middle">position_sizing:</text>
    <text x="180" y="338" font-family="ui-monospace, SFMono-Regular, Menlo, monospace" font-size="13" font-weight="400" fill="#6B6B6B" text-anchor="start" dominant-baseline="middle">weight: 1/n</text>
    <text x="166" y="382" font-family="ui-monospace, SFMono-Regular, Menlo, monospace" font-size="13" font-weight="500" fill="#2D2D2D" text-anchor="start" dominant-baseline="middle">rebalance:</text>
    <text x="180" y="410" font-family="ui-monospace, SFMono-Regular, Menlo, monospace" font-size="13" font-weight="400" fill="#6B6B6B" text-anchor="start" dominant-baseline="middle">frequency:</text>
    <text x="194" y="438" font-family="ui-monospace, SFMono-Regular, Menlo, monospace" font-size="13" font-weight="400" fill="#2D2D2D" text-anchor="start" dominant-baseline="middle">"month_end"</text>
  </g>

  <g id="arrow-1">
    <line x1="450" y1="250" x2="540" y2="250" stroke="#2D2D2D" stroke-width="1.5" stroke-linecap="round"/>
    <polygon points="540,250 528,244 528,256" fill="#2D2D2D"/>
  </g>

  <g id="chip">
    <g id="chip-pins-top">
      <rect x="598" y="130" width="4" height="10" fill="#10456B"/>
      <rect x="618" y="130" width="4" height="10" fill="#10456B"/>
      <rect x="638" y="130" width="4" height="10" fill="#10456B"/>
      <rect x="658" y="130" width="4" height="10" fill="#10456B"/>
      <rect x="678" y="130" width="4" height="10" fill="#10456B"/>
      <rect x="698" y="130" width="4" height="10" fill="#10456B"/>
      <rect x="718" y="130" width="4" height="10" fill="#10456B"/>
      <rect x="738" y="130" width="4" height="10" fill="#10456B"/>
      <rect x="758" y="130" width="4" height="10" fill="#10456B"/>
      <rect x="778" y="130" width="4" height="10" fill="#10456B"/>
      <rect x="798" y="130" width="4" height="10" fill="#10456B"/>
    </g>
    <g id="chip-pins-bottom">
      <rect x="598" y="360" width="4" height="10" fill="#10456B"/>
      <rect x="618" y="360" width="4" height="10" fill="#10456B"/>
      <rect x="638" y="360" width="4" height="10" fill="#10456B"/>
      <rect x="658" y="360" width="4" height="10" fill="#10456B"/>
      <rect x="678" y="360" width="4" height="10" fill="#10456B"/>
      <rect x="698" y="360" width="4" height="10" fill="#10456B"/>
      <rect x="718" y="360" width="4" height="10" fill="#10456B"/>
      <rect x="738" y="360" width="4" height="10" fill="#10456B"/>
      <rect x="758" y="360" width="4" height="10" fill="#10456B"/>
      <rect x="778" y="360" width="4" height="10" fill="#10456B"/>
      <rect x="798" y="360" width="4" height="10" fill="#10456B"/>
    </g>
    <g id="chip-pins-left">
      <rect x="580" y="148" width="10" height="4" fill="#10456B"/>
      <rect x="580" y="168" width="10" height="4" fill="#10456B"/>
      <rect x="580" y="188" width="10" height="4" fill="#10456B"/>
      <rect x="580" y="208" width="10" height="4" fill="#10456B"/>
      <rect x="580" y="228" width="10" height="4" fill="#10456B"/>
      <rect x="580" y="248" width="10" height="4" fill="#10456B"/>
      <rect x="580" y="268" width="10" height="4" fill="#10456B"/>
      <rect x="580" y="288" width="10" height="4" fill="#10456B"/>
      <rect x="580" y="308" width="10" height="4" fill="#10456B"/>
      <rect x="580" y="328" width="10" height="4" fill="#10456B"/>
      <rect x="580" y="348" width="10" height="4" fill="#10456B"/>
    </g>
    <g id="chip-pins-right">
      <rect x="810" y="148" width="10" height="4" fill="#10456B"/>
      <rect x="810" y="168" width="10" height="4" fill="#10456B"/>
      <rect x="810" y="188" width="10" height="4" fill="#10456B"/>
      <rect x="810" y="208" width="10" height="4" fill="#10456B"/>
      <rect x="810" y="228" width="10" height="4" fill="#10456B"/>
      <rect x="810" y="248" width="10" height="4" fill="#10456B"/>
      <rect x="810" y="268" width="10" height="4" fill="#10456B"/>
      <rect x="810" y="288" width="10" height="4" fill="#10456B"/>
      <rect x="810" y="308" width="10" height="4" fill="#10456B"/>
      <rect x="810" y="328" width="10" height="4" fill="#10456B"/>
      <rect x="810" y="348" width="10" height="4" fill="#10456B"/>
    </g>
    <rect x="590" y="140" width="220" height="220" fill="#10456B" rx="3"/>
    <rect x="630" y="180" width="140" height="140" fill="none" stroke="#FFFFFF" stroke-width="1.5" rx="2"/>
    <text x="700" y="250" font-family="ui-monospace, SFMono-Regular, Menlo, monospace" font-size="22" font-weight="500" fill="#FFFFFF" text-anchor="middle" dominant-baseline="middle">TEE</text>
  </g>

  <g id="arrow-2">
    <line x1="860" y1="250" x2="960" y2="250" stroke="#2D2D2D" stroke-width="1.5" stroke-linecap="round"/>
    <polygon points="960,250 948,244 948,256" fill="#2D2D2D"/>
  </g>

  <g id="svp-document">
    <rect x="970" y="50" width="280" height="400" fill="#FFFFFF" stroke="#E0E0E0" stroke-width="1" rx="3"/>
    <rect x="970" y="50" width="280" height="40" fill="#2D2D2D" rx="3"/>
    <text x="1110" y="70" font-family="Inter, system-ui, -apple-system, sans-serif" font-size="11" font-weight="600" fill="#FFFFFF" text-anchor="middle" dominant-baseline="middle" letter-spacing="1.2">VERIFICATION PACKAGE</text>
    <text x="985" y="110" font-family="ui-monospace, SFMono-Regular, Menlo, monospace" font-size="11" font-weight="400" fill="#6B6B6B" text-anchor="start" dominant-baseline="middle">sha256: a4f2e8c1...d3b7</text>
    <text x="985" y="160" font-family="Inter, system-ui, -apple-system, sans-serif" font-size="9" font-weight="500" fill="#6B6B6B" text-anchor="start" dominant-baseline="middle" letter-spacing="1">RETURNS</text>
    <line x1="985" y1="170" x2="1235" y2="170" stroke="#E0E0E0" stroke-width="1"/>
    <rect x="995" y="210" width="30" height="30" fill="#6B6B6B"/>
    <rect x="1035" y="200" width="30" height="40" fill="#6B6B6B"/>
    <rect x="1075" y="205" width="30" height="35" fill="#6B6B6B"/>
    <rect x="1115" y="190" width="30" height="50" fill="#6B6B6B"/>
    <rect x="1155" y="200" width="30" height="40" fill="#6B6B6B"/>
    <rect x="1195" y="195" width="30" height="45" fill="#6B6B6B"/>
    <line x1="985" y1="240" x2="1235" y2="240" stroke="#E0E0E0" stroke-width="1"/>
    <text x="985" y="290" font-family="Inter, system-ui, -apple-system, sans-serif" font-size="9" font-weight="500" fill="#6B6B6B" text-anchor="start" dominant-baseline="middle" letter-spacing="1">SHARPE</text>
    <rect x="985" y="304" width="80" height="12" fill="#E0E0E0" rx="2"/>
    <line x1="985" y1="350" x2="1235" y2="350" stroke="#E0E0E0" stroke-width="1"/>
    <g id="attested-stamp" transform="rotate(-7 1165 383)">
      <rect x="1100" y="362" width="130" height="42" fill="none" stroke="#10456B" stroke-width="1.5" rx="3"/>
      <text x="1165" y="383" font-family="Inter, system-ui, -apple-system, sans-serif" font-size="18" font-weight="700" fill="#10456B" text-anchor="middle" dominant-baseline="middle" letter-spacing="1.5">ATTESTED</text>
    </g>
    <line x1="985" y1="415" x2="1115" y2="415" stroke="#2D2D2D" stroke-width="1"/>
    <text x="985" y="430" font-family="Inter, system-ui, -apple-system, sans-serif" font-size="8" font-weight="500" fill="#6B6B6B" text-anchor="start" dominant-baseline="middle" letter-spacing="0.6">HARDWARE ATTESTATION</text>
    <text x="1130" y="415" font-family="ui-monospace, SFMono-Regular, Menlo, monospace" font-size="8" font-weight="400" fill="#6B6B6B" text-anchor="start" dominant-baseline="middle">SEV-SNP</text>
  </g>
</svg>
