<svg viewBox="0 0 1400 700" xmlns="http://www.w3.org/2000/svg">
  <rect x="0" y="0" width="1400" height="700" fill="#FAFAFA"/>

  <g id="document">
    <rect x="500" y="60" width="400" height="580" fill="#FFFFFF" stroke="#E0E0E0" stroke-width="1" rx="3"/>

    <rect x="500" y="60" width="400" height="56" fill="#2D2D2D" rx="3"/>
    <text x="520" y="88" font-family="Inter, system-ui, -apple-system, sans-serif" font-size="13" font-weight="600" fill="#FFFFFF" text-anchor="start" dominant-baseline="middle" letter-spacing="1.5">STRATEGY VERIFICATION PACKAGE</text>

    <text x="520" y="142" font-family="ui-monospace, SFMono-Regular, Menlo, monospace" font-size="12" font-weight="400" fill="#6B6B6B" text-anchor="start" dominant-baseline="middle">sha256: a4f2e8c1...d3b7</text>

    <line x1="520" y1="170" x2="880" y2="170" stroke="#E0E0E0" stroke-width="1"/>

    <text x="520" y="195" font-family="Inter, system-ui, -apple-system, sans-serif" font-size="11" font-weight="500" fill="#6B6B6B" text-anchor="start" dominant-baseline="middle" letter-spacing="1">PERIOD</text>
    <rect x="520" y="208" width="160" height="14" fill="#E0E0E0" rx="2"/>

    <text x="520" y="248" font-family="Inter, system-ui, -apple-system, sans-serif" font-size="11" font-weight="500" fill="#6B6B6B" text-anchor="start" dominant-baseline="middle" letter-spacing="1">RETURNS</text>

    <rect x="520" y="305" width="50" height="40" fill="#6B6B6B"/>
    <rect x="582" y="285" width="50" height="60" fill="#6B6B6B"/>
    <rect x="644" y="295" width="50" height="50" fill="#6B6B6B"/>
    <rect x="706" y="275" width="50" height="70" fill="#6B6B6B"/>
    <rect x="768" y="290" width="50" height="55" fill="#6B6B6B"/>
    <rect x="830" y="280" width="50" height="65" fill="#6B6B6B"/>

    <line x1="520" y1="345" x2="880" y2="345" stroke="#E0E0E0" stroke-width="1"/>

    <text x="520" y="395" font-family="Inter, system-ui, -apple-system, sans-serif" font-size="11" font-weight="500" fill="#6B6B6B" text-anchor="start" dominant-baseline="middle" letter-spacing="1">SHARPE</text>
    <rect x="520" y="408" width="100" height="14" fill="#E0E0E0" rx="2"/>

    <line x1="520" y1="450" x2="880" y2="450" stroke="#E0E0E0" stroke-width="1"/>

    <line x1="520" y1="580" x2="700" y2="580" stroke="#2D2D2D" stroke-width="1.5"/>
    <text x="520" y="600" font-family="Inter, system-ui, -apple-system, sans-serif" font-size="10" font-weight="500" fill="#6B6B6B" text-anchor="start" dominant-baseline="middle" letter-spacing="0.6">HARDWARE ATTESTATION</text>
    <text x="720" y="580" font-family="ui-monospace, SFMono-Regular, Menlo, monospace" font-size="10" font-weight="400" fill="#6B6B6B" text-anchor="start" dominant-baseline="middle">SEV-SNP</text>
  </g>

  <g id="stamp" transform="rotate(-7 797 529)">
    <rect x="717" y="500" width="160" height="58" fill="none" stroke="#10456B" stroke-width="2.5" rx="3"/>
    <text x="797" y="529" font-family="Inter, system-ui, -apple-system, sans-serif" font-size="22" font-weight="700" fill="#10456B" text-anchor="middle" dominant-baseline="middle" letter-spacing="1.6">ATTESTED</text>
  </g>
</svg>