<svg viewBox="0 0 1400 700" xmlns="http://www.w3.org/2000/svg">
  <rect x="0" y="0" width="1400" height="700" fill="#FAFAFA"/>

  <g id="input-flow">
    <text x="365" y="325" font-family="Inter, system-ui, -apple-system, sans-serif" font-size="16" font-weight="500" fill="#2D2D2D" text-anchor="middle" dominant-baseline="middle">OVL + market data</text>
    <line x1="280" y1="350" x2="450" y2="350" stroke="#2D2D2D" stroke-width="1.5" stroke-linecap="round"/>
    <polygon points="450,350 438,344 438,356" fill="#2D2D2D"/>
  </g>

  <g id="chip">
    <g id="chip-pins-top">
      <rect x="468" y="100" width="4" height="10" fill="#10456B"/>
      <rect x="488" y="100" width="4" height="10" fill="#10456B"/>
      <rect x="508" y="100" width="4" height="10" fill="#10456B"/>
      <rect x="528" y="100" width="4" height="10" fill="#10456B"/>
      <rect x="548" y="100" width="4" height="10" fill="#10456B"/>
      <rect x="568" y="100" width="4" height="10" fill="#10456B"/>
      <rect x="588" y="100" width="4" height="10" fill="#10456B"/>
      <rect x="608" y="100" width="4" height="10" fill="#10456B"/>
      <rect x="628" y="100" width="4" height="10" fill="#10456B"/>
      <rect x="648" y="100" width="4" height="10" fill="#10456B"/>
      <rect x="668" y="100" width="4" height="10" fill="#10456B"/>
      <rect x="688" y="100" width="4" height="10" fill="#10456B"/>
      <rect x="708" y="100" width="4" height="10" fill="#10456B"/>
      <rect x="728" y="100" width="4" height="10" fill="#10456B"/>
      <rect x="748" y="100" width="4" height="10" fill="#10456B"/>
      <rect x="768" y="100" width="4" height="10" fill="#10456B"/>
      <rect x="788" y="100" width="4" height="10" fill="#10456B"/>
      <rect x="808" y="100" width="4" height="10" fill="#10456B"/>
      <rect x="828" y="100" width="4" height="10" fill="#10456B"/>
      <rect x="848" y="100" width="4" height="10" fill="#10456B"/>
      <rect x="868" y="100" width="4" height="10" fill="#10456B"/>
      <rect x="888" y="100" width="4" height="10" fill="#10456B"/>
      <rect x="908" y="100" width="4" height="10" fill="#10456B"/>
      <rect x="928" y="100" width="4" height="10" fill="#10456B"/>
    </g>
    <g id="chip-pins-bottom">
      <rect x="468" y="590" width="4" height="10" fill="#10456B"/>
      <rect x="488" y="590" width="4" height="10" fill="#10456B"/>
      <rect x="508" y="590" width="4" height="10" fill="#10456B"/>
      <rect x="528" y="590" width="4" height="10" fill="#10456B"/>
      <rect x="548" y="590" width="4" height="10" fill="#10456B"/>
      <rect x="568" y="590" width="4" height="10" fill="#10456B"/>
      <rect x="588" y="590" width="4" height="10" fill="#10456B"/>
      <rect x="608" y="590" width="4" height="10" fill="#10456B"/>
      <rect x="628" y="590" width="4" height="10" fill="#10456B"/>
      <rect x="648" y="590" width="4" height="10" fill="#10456B"/>
      <rect x="668" y="590" width="4" height="10" fill="#10456B"/>
      <rect x="688" y="590" width="4" height="10" fill="#10456B"/>
      <rect x="708" y="590" width="4" height="10" fill="#10456B"/>
      <rect x="728" y="590" width="4" height="10" fill="#10456B"/>
      <rect x="748" y="590" width="4" height="10" fill="#10456B"/>
      <rect x="768" y="590" width="4" height="10" fill="#10456B"/>
      <rect x="788" y="590" width="4" height="10" fill="#10456B"/>
      <rect x="808" y="590" width="4" height="10" fill="#10456B"/>
      <rect x="828" y="590" width="4" height="10" fill="#10456B"/>
      <rect x="848" y="590" width="4" height="10" fill="#10456B"/>
      <rect x="868" y="590" width="4" height="10" fill="#10456B"/>
      <rect x="888" y="590" width="4" height="10" fill="#10456B"/>
      <rect x="908" y="590" width="4" height="10" fill="#10456B"/>
      <rect x="928" y="590" width="4" height="10" fill="#10456B"/>
    </g>
    <g id="chip-pins-left">
      <rect x="450" y="118" width="10" height="4" fill="#10456B"/>
      <rect x="450" y="138" width="10" height="4" fill="#10456B"/>
      <rect x="450" y="158" width="10" height="4" fill="#10456B"/>
      <rect x="450" y="178" width="10" height="4" fill="#10456B"/>
      <rect x="450" y="198" width="10" height="4" fill="#10456B"/>
      <rect x="450" y="218" width="10" height="4" fill="#10456B"/>
      <rect x="450" y="238" width="10" height="4" fill="#10456B"/>
      <rect x="450" y="258" width="10" height="4" fill="#10456B"/>
      <rect x="450" y="278" width="10" height="4" fill="#10456B"/>
      <rect x="450" y="298" width="10" height="4" fill="#10456B"/>
      <rect x="450" y="318" width="10" height="4" fill="#10456B"/>
      <rect x="450" y="338" width="10" height="4" fill="#10456B"/>
      <rect x="450" y="358" width="10" height="4" fill="#10456B"/>
      <rect x="450" y="378" width="10" height="4" fill="#10456B"/>
      <rect x="450" y="398" width="10" height="4" fill="#10456B"/>
      <rect x="450" y="418" width="10" height="4" fill="#10456B"/>
      <rect x="450" y="438" width="10" height="4" fill="#10456B"/>
      <rect x="450" y="458" width="10" height="4" fill="#10456B"/>
      <rect x="450" y="478" width="10" height="4" fill="#10456B"/>
      <rect x="450" y="498" width="10" height="4" fill="#10456B"/>
      <rect x="450" y="518" width="10" height="4" fill="#10456B"/>
      <rect x="450" y="538" width="10" height="4" fill="#10456B"/>
      <rect x="450" y="558" width="10" height="4" fill="#10456B"/>
      <rect x="450" y="578" width="10" height="4" fill="#10456B"/>
    </g>
    <g id="chip-pins-right">
      <rect x="940" y="118" width="10" height="4" fill="#10456B"/>
      <rect x="940" y="138" width="10" height="4" fill="#10456B"/>
      <rect x="940" y="158" width="10" height="4" fill="#10456B"/>
      <rect x="940" y="178" width="10" height="4" fill="#10456B"/>
      <rect x="940" y="198" width="10" height="4" fill="#10456B"/>
      <rect x="940" y="218" width="10" height="4" fill="#10456B"/>
      <rect x="940" y="238" width="10" height="4" fill="#10456B"/>
      <rect x="940" y="258" width="10" height="4" fill="#10456B"/>
      <rect x="940" y="278" width="10" height="4" fill="#10456B"/>
      <rect x="940" y="298" width="10" height="4" fill="#10456B"/>
      <rect x="940" y="318" width="10" height="4" fill="#10456B"/>
      <rect x="940" y="338" width="10" height="4" fill="#10456B"/>
      <rect x="940" y="358" width="10" height="4" fill="#10456B"/>
      <rect x="940" y="378" width="10" height="4" fill="#10456B"/>
      <rect x="940" y="398" width="10" height="4" fill="#10456B"/>
      <rect x="940" y="418" width="10" height="4" fill="#10456B"/>
      <rect x="940" y="438" width="10" height="4" fill="#10456B"/>
      <rect x="940" y="458" width="10" height="4" fill="#10456B"/>
      <rect x="940" y="478" width="10" height="4" fill="#10456B"/>
      <rect x="940" y="498" width="10" height="4" fill="#10456B"/>
      <rect x="940" y="518" width="10" height="4" fill="#10456B"/>
      <rect x="940" y="538" width="10" height="4" fill="#10456B"/>
      <rect x="940" y="558" width="10" height="4" fill="#10456B"/>
      <rect x="940" y="578" width="10" height="4" fill="#10456B"/>
    </g>
    <rect x="460" y="110" width="480" height="480" fill="#10456B" rx="3"/>
    <rect x="580" y="230" width="240" height="240" fill="none" stroke="#FFFFFF" stroke-width="1.5" rx="2"/>
    <text x="700" y="350" font-family="ui-monospace, SFMono-Regular, Menlo, monospace" font-size="32" font-weight="500" fill="#FFFFFF" text-anchor="middle" dominant-baseline="middle">TEE</text>
  </g>

  <g id="output-flow">
    <text x="1035" y="325" font-family="Inter, system-ui, -apple-system, sans-serif" font-size="16" font-weight="500" fill="#2D2D2D" text-anchor="middle" dominant-baseline="middle">SVP</text>
    <line x1="950" y1="350" x2="1120" y2="350" stroke="#2D2D2D" stroke-width="1.5" stroke-linecap="round"/>
    <polygon points="1120,350 1108,344 1108,356" fill="#2D2D2D"/>
  </g>
</svg>